<svg xmlns="http://www.w3.org/2000/svg" version="1.1" xmlns:xlink="http://www.w3.org/1999/xlink" xmlns:svgjs="http://svgjs.dev/svgjs" width="2000" height="2250" viewBox="0 0 2000 2250"><g transform="matrix(1,0,0,1,3.410605131648481e-13,0)"><svg viewBox="0 0 320 360" data-background-color="#dbefed" preserveAspectRatio="xMidYMid meet" height="2250" width="2000" xmlns="http://www.w3.org/2000/svg" xmlns:xlink="http://www.w3.org/1999/xlink"><g id="tight-bounds" transform="matrix(1,0,0,1,0,0)"><svg viewBox="0 0 320 360" height="360" width="320"><g><svg></svg></g><g><svg viewBox="0 0 320 360" height="360" width="320"><g><path d="M20.961 227.22l3.726 4.658-1.863-6.056c-0.466-2.795-3.726 0.466-1.863 1.398M25.153 224.425c1.397 2.329 2.795 4.658 2.795 6.987 0 3.261 2.795 4.658 5.123 5.589-3.261-3.726-5.124-13.974-7.918-12.576M204.017 26.929c7.918 0 15.371-0.932 23.756 0.931 20.495 5.124 37.729 15.371 49.374 29.811l32.606 52.169c1.397 13.042 4.192 27.482 3.726 43.319 3.261 0 2.795-4.658 6.521-5.59-3.726 9.316-5.59 20.961-6.521 34.469-2.329-7.453 0-18.632 0.466-24.687-3.261 5.124-5.124 1.397-5.124-0.932 0.466-3.726-1.397-3.261-2.795-4.658-5.124-4.658-8.384-9.782-12.11-17.7 2.329-6.055 2.795-14.905-4.658-19.563-2.329-1.397-5.124-3.726-6.521-7.453-1.863-5.124-5.124-11.179-4.193-19.097 0.466-2.329-6.987 5.124-11.179 1.863-18.166-12.576-36.332-27.016-58.224-39.127-11.645 0-20.029-4.192-24.221-9.316-3.726-4.658-0.932-10.713 4.658-11.179 3.261 0 6.987-0.932 9.782 0.932 0.466-1.863 2.329-4.192 4.657-4.192M157.904 16.215l0.932 0.466c4.658 0.932 6.987 7.453 12.11 5.124 0 3.261 0.466 6.521-0.466 8.85-1.397 3.726-5.59 3.726-8.85 3.726-31.208-1.863-49.374 11.179-68.471 22.358-5.124 3.261-10.713 5.59-14.906 9.782-20.029 18.632-41.921 35.866-47.045 70.335l-4.192 38.195c-0.466 4.192-5.124 8.384-4.192 13.508l3.26 22.824c-3.261-3.261-5.124 0.932-4.192 2.795 0.466 1.397 2.329 6.055 5.124 1.863 3.726 6.987 7.453 20.495 12.576 26.55 15.837 18.632 36.332 35.4 53.101 52.169 4.192-0.932 7.453-0.932 8.384-3.727 1.397 2.795-1.397 5.59-3.726 6.056 7.453 4.658 15.837 8.85 27.016 9.781 14.44 0.932 27.948 3.261 40.524 6.522 6.521-1.863 13.042-2.795 20.029-3.261 2.329 0 3.726-3.726 6.521-4.658l0.466-4.658c2.795 4.192 2.329-1.397 0.466-4.192 3.261 2.795 4.192 5.124 5.589 6.987 0-1.397 3.726-6.521 3.727-0.466l0.931-6.055c1.397-0.932 1.863 5.124 3.261 0.931 1.397-4.192 4.192-0.932 6.987-2.329-0.932 1.863-0.466 5.59 2.794 3.261l3.727-3.261c2.329 5.59 6.055 3.261 7.918 2.329 20.495-13.042 40.99-28.413 60.553-43.784l-0.466 6.055 2.329-7.453c2.329 2.329 4.192 0.466 5.124-0.931 2.795-4.658 6.521-9.316 12.577-13.508-7.453 20.029-16.303 35.866-27.482 48.908l-4.658 5.59c0 3.261-0.932 7.453-4.658 7.918-1.863 0.466-5.59-0.932-8.384 1.863-1.397 1.863 3.261 5.59-0.466 2.795-3.261-2.329-6.521 0-10.248 0.932-2.795 0.932 1.863 3.726 2.795 5.589 0.932 1.863 1.863 3.726 1.398 6.056l-5.124-5.59c-6.055 3.261-9.782 9.316-14.906 13.974-2.329 1.863-1.397 5.124-1.397 7.918-3.261 0-6.987-0.932-8.85 0.932-1.397 1.863-0.932 4.658-0.932 7.453-4.658-0.466-5.124-7.453-9.315-6.056-4.192 0.932-8.85 1.397-12.577 3.727 2.795 5.59-4.658 2.329-3.726 3.26-6.987-4.192-13.042-7.453-20.495-4.658-15.837-5.124-35.4-2.795-49.84-0.931 0-2.329 0.466-4.658-0.466-5.124-0.932 2.329-3.726 1.397-3.26 1.397-8.85-6.055-17.7-9.782-27.016-14.905-8.384 0.932-16.303-3.261-18.632-5.59-6.521-6.055-13.974-2.795-20.029-4.192-13.042-3.261-17.7-16.769-19.098-26.084-0.932-4.658-4.658-6.521-6.055-6.056-6.055-19.563-15.371-37.263-22.824-55.429-1.863-4.658-1.397-9.316-1.397-14.44 2.329 0.932 4.658 0.466 4.192-2.794-2.329-15.371-7.918-27.016-13.974-38.195 3.261-15.837 3.726-34.469 11.179-48.443 6.521-12.576 18.632-19.098 27.016-29.811 2.795-3.726 2.795-8.85 5.59-12.11 9.316-9.316 18.632-19.098 28.879-27.482 4.658-3.726 10.247 0 17.234-1.397 2.329-8.384 11.645-15.837 20.495-13.508 3.726 0.932 11.179-8.85 13.508-9.782 3.726-1.397 1.863 3.726 1.863 6.987 8.85-6.987 20.961-10.713 32.14-14.906" fill="#cb1106" fill-rule="nonzero" stroke="none" stroke-width="1" stroke-linecap="butt" stroke-linejoin="miter" stroke-miterlimit="10" stroke-dasharray="" stroke-dashoffset="0" font-family="none" font-weight="none" font-size="none" text-anchor="none" style="mix-blend-mode: normal" data-fill-palette-color="tertiary"></path></g><g transform="matrix(1,0,0,1,64,137.58724095246706)"><svg viewBox="0 0 192 84.82551809506589" height="84.82551809506589" width="192"><g><svg viewBox="0 0 192 84.82551809506589" height="84.82551809506589" width="192"><g><svg viewBox="0 0 192 84.82551809506589" height="84.82551809506589" width="192"><g id="textblocktransform"><svg viewBox="0 0 192 84.82551809506589" height="84.82551809506589" width="192" id="textblock"><g><svg viewBox="0 0 192 65.04409968291377" height="65.04409968291377" width="192"><path d="M191.55 13.951C190.648 7.199 188.075 5.322 188.075 5.322 180.177-1.632 170.321-0.133 161.466 0.866 145.832 0.907 130.262 2.392 114.664 3.189 81.926 3.31 48.907 1.312 16.331 6.24 13.271 7.753-3.175 6.538 0.544 14.815 1.519 18.258 5.075 22.08 4.967 25.239 5.455 25.793 6.132 24.524 6.42 25.32 7.431 27.467 9.083 26.455 10.437 27.724 8.551 31.113 9.905 33.935 11.195 36.892 8.921 37.662 6.005 37.298 4.696 39.85 4.561 41.7 3.83 41.349 3.027 41.268 2.44 41.213 1.257 41.416 1.456 41.997 2.133 43.982-0.774 45.129 1.05 47.074-0.205 49.18 1.916 51.003 1.627 53.285 1.591 53.744 1.79 54.136 2.106 54.244 3.505 54.825 1.465 55.959 1.682 57.188 16.033 65.587 31.604 59.78 46.308 63.642 50.126 60.942 47.256 64.601 48.781 64.034 49.972 63.372 50.839 66.113 52.184 64.56 52.392 64.115 52.076 63.062 52.816 63.264 53.204 63.372 53.547 63.345 53.601 62.724 53.682 61.792 52.969 62.373 52.78 61.887 54.829 59.429 54.323 65.276 56.246 65.033 56.156 64.317 55.596 63.291 56.742 63.426 57.88 62.4 57.916 61.549 58.927 63.858 58.963 64.358 59.143 64.709 59.432 64.952 62.591 62.44 65.732 65.843 69.045 64.709 71.076 63.467 73.026 65.384 75.084 64.911 75.806 64.533 76.537 63.858 77.232 64.992 85.744 65.236 94.815 64.223 102.885 65.033 124.449 63.521 147.493 65.654 170.23 63.656 175.592 62.886 181.161 61.792 186.387 60.915 186.387 60.915 190.621 58.511 190.621 47.708S191.523 38.256 191.659 29.655C191.794 21.053 192.426 20.702 191.523 13.951Z" opacity="1" fill="#cb1106" data-fill-palette-color="tertiary"></path><g transform="matrix(1,0,0,1,27.072000000000003,18.981962000000003)"><svg width="137.856" viewBox="2.81 -35.82 182.31 35.82" height="27.08017568291376" data-palette-color="#dbefed"><path d="M13.6-32.4L13.6-6.47 22.85-6.47 22.85 0 9.28 0 2.81-6.47 2.81-25.93 9.28-32.4 13.6-32.4ZM19.31-11.55L19.31-17.97 34.13-17.97 34.13 0 24.56 0 24.56-11.55 19.31-11.55ZM23.34-25.93L15.31-25.93 15.31-32.4 28.47-32.4 34.13-25.93 34.13-22.68 23.34-22.68 23.34-25.93ZM67.94-19.46L67.94-6.47 61.47 0 54.25 0 54.25-6.05 56.93-6.05 56.93-19.46 54.25-19.46 54.25-25.93 61.47-25.93 67.94-19.46ZM49.73-19.46L49.73-6.05 52.54-6.05 52.54 0 45.29 0 38.82-6.47 38.82-19.46 45.29-25.93 52.54-25.93 52.54-19.46 49.73-19.46ZM88.42-6.47L88.42 0 78.85 0 72.8-6.05 72.8-35.82 83.59-35.82 83.59-6.47 88.42-6.47ZM108.66-35.82L119.45-35.82 119.45 0 108.66 0 108.66-35.82ZM101.75-19.46L101.75-6.05 106.95-6.05 106.95-2.56 104.39 0 96.79 0 90.96-5.83 90.96-20.09 96.79-25.93 106.95-25.93 106.95-19.46 101.75-19.46ZM135.1-25.93L135.1 0 130.78 0 124.31-6.47 124.31-19.46 130.78-25.93 135.1-25.93ZM152.43-10.4L136.81-10.4 136.81-14.92 142.49-14.92 142.49-19.46 136.81-19.46 136.81-25.93 145.96-25.93 152.43-19.46 152.43-10.4ZM148.09 0L136.81 0 136.81-6.05 151.31-6.05 151.31-3.25 148.09 0ZM167.91 0L157.02 0 157.02-25.93 167.91-25.93 167.91 0ZM174.3 0L174.3-19.46 169.67-19.46 169.67-22.29 173.28-25.93 179.28-25.93 185.12-20.09 185.12 0 174.3 0Z" opacity="1" transform="matrix(1,0,0,1,0,0)" fill="#dbefed" class="wordmark-text-0" data-fill-palette-color="quaternary" id="text-0"></path></svg></g></svg></g><g transform="matrix(1,0,0,1,67.51216955362679,71.43707923743332)"><svg viewBox="0 0 56.97566089274641 13.388438857632565" height="13.388438857632565" width="56.97566089274641"><g transform="matrix(1,0,0,1,0,0)"><svg width="56.97566089274641" viewBox="3.1 -35.15 152.34 35.8" height="13.388438857632565" data-palette-color="#cb1106"><path d="M17.5-35.15L17.5-35.15Q19.25-35.15 20.9-35.05 22.55-34.95 24.1-34.73 25.65-34.5 27.1-34.1L27.1-34.1 26.65-30.8Q25.1-30.95 23.53-31.05 21.95-31.15 20.5-31.18 19.05-31.2 17.75-31.2L17.75-31.2Q14.95-31.2 13.03-30.68 11.1-30.15 9.95-28.65 8.8-27.15 8.28-24.35 7.75-21.55 7.75-17.05L7.75-17.05Q7.75-11.95 8.45-8.93 9.15-5.9 10.8-4.55 12.45-3.2 15.2-3.2L15.2-3.2Q17.1-3.2 18.68-3.75 20.25-4.3 21.63-5.18 23-6.05 24.3-7L24.3-7 24.9-4.3Q24-3.25 22.43-2.1 20.85-0.95 18.75-0.15 16.65 0.65 14 0.65L14 0.65Q10.15 0.65 7.73-1.28 5.3-3.2 4.2-7.18 3.1-11.15 3.1-17.35L3.1-17.35Q3.1-24.2 4.48-28.08 5.85-31.95 9.03-33.55 12.2-35.15 17.5-35.15ZM23.7-19.95L28-19.95 28 0 24.8 0 24.1-5.1 23.7-6.1 23.7-19.95ZM45.6-24.95L45.6-24.95Q49.8-24.95 52.32-23.7 54.85-22.45 55.95-19.63 57.05-16.8 57.05-12.15L57.05-12.15Q57.05-7.5 55.95-4.67 54.85-1.85 52.32-0.6 49.8 0.65 45.6 0.65L45.6 0.65Q41.45 0.65 38.92-0.6 36.4-1.85 35.27-4.67 34.15-7.5 34.15-12.15L34.15-12.15Q34.15-16.8 35.27-19.63 36.4-22.45 38.92-23.7 41.45-24.95 45.6-24.95ZM45.6-21.35L45.6-21.35Q42.95-21.35 41.42-20.53 39.9-19.7 39.25-17.7 38.6-15.7 38.6-12.15L38.6-12.15Q38.6-8.6 39.25-6.6 39.9-4.6 41.42-3.78 42.95-2.95 45.6-2.95L45.6-2.95Q48.25-2.95 49.8-3.78 51.35-4.6 52-6.6 52.65-8.6 52.65-12.15L52.65-12.15Q52.65-15.7 52-17.7 51.35-19.7 49.8-20.53 48.25-21.35 45.6-21.35ZM63.75-35L68-35 67.95-6.7Q67.95-5.1 68.82-4.28 69.7-3.45 71.3-3.45L71.3-3.45 73.65-3.45 74.15-0.2Q73.7 0 72.87 0.15 72.05 0.3 71.17 0.38 70.3 0.45 69.7 0.45L69.7 0.45Q67 0.45 65.37-1.15 63.75-2.75 63.75-5.75L63.75-5.75 63.75-35ZM86.64-24.95L86.64-24.95Q89.04-24.95 91.39-24.33 93.74-23.7 95.89-22.4L95.89-22.4 95.64-19.75Q93.29-20.45 91.49-20.85 89.69-21.25 87.64-21.25L87.64-21.25Q85.54-21.25 84.27-20.53 82.99-19.8 82.39-17.85 81.79-15.9 81.79-12.3L81.79-12.3Q81.79-8.7 82.37-6.7 82.94-4.7 84.19-3.9 85.44-3.1 87.39-3.1L87.39-3.1Q88.84-3.1 90.02-3.48 91.19-3.85 92.52-4.7 93.84-5.55 95.64-6.85L95.64-6.85 96.04-3.85Q94.04-2 91.49-0.7 88.94 0.6 85.99 0.6L85.99 0.6Q81.39 0.6 79.42-2.65 77.44-5.9 77.44-12.25L77.44-12.25Q77.44-17 78.44-19.78 79.44-22.55 81.49-23.75 83.54-24.95 86.64-24.95ZM95.09-35L99.34-35 99.34 0 96.04 0 95.54-4.25 95.09-4.6 95.09-21.3 95.39-22.05Q95.19-23.45 95.14-24.75 95.09-26.05 95.09-27.5L95.09-27.5 95.09-35ZM117.19-24.95L117.19-24.95Q122.69-24.95 125.17-22.95 127.64-20.95 127.64-17L127.64-17Q127.69-13.75 126.29-11.93 124.89-10.1 121.84-10.1L121.84-10.1 107.64-10.1 107.64-13.4 120.74-13.4Q122.39-13.4 122.89-14.53 123.39-15.65 123.39-17L123.39-17Q123.34-19.35 121.99-20.35 120.64-21.35 117.39-21.35L117.39-21.35Q114.74-21.35 113.22-20.58 111.69-19.8 111.07-17.88 110.44-15.95 110.44-12.5L110.44-12.5Q110.44-8.6 111.22-6.55 111.99-4.5 113.69-3.75 115.39-3 118.19-3L118.19-3Q120.14-3 122.47-3.18 124.79-3.35 126.64-3.6L126.64-3.6 127.09-0.75Q125.94-0.3 124.27 0 122.59 0.3 120.82 0.45 119.04 0.6 117.64 0.6L117.64 0.6Q113.44 0.6 110.89-0.68 108.34-1.95 107.17-4.78 105.99-7.6 105.99-12.25L105.99-12.25Q105.99-17.05 107.17-19.83 108.34-22.6 110.82-23.78 113.29-24.95 117.19-24.95ZM148.84-24.95L148.84-24.95Q155.44-24.95 155.44-18.25L155.44-18.25 155.44 0 151.19 0 151.19-17.05Q151.19-19.5 150.39-20.43 149.59-21.35 147.69-21.35L147.69-21.35Q145.44-21.35 143.19-20.25 140.94-19.15 137.84-17.25L137.84-17.25 137.64-20.3Q140.49-22.5 143.29-23.73 146.09-24.95 148.84-24.95ZM134.04-24.35L137.64-24.35 137.99-19.7 138.29-18.95 138.29 0 134.04 0 134.04-24.35Z" opacity="1" transform="matrix(1,0,0,1,0,0)" fill="#cb1106" class="slogan-text-1" data-fill-palette-color="secondary" id="text-1"></path></svg></g></svg></g></svg></g></svg></g><g></g></svg></g></svg></g></svg></g><defs></defs></svg><rect width="320" height="360" fill="none" stroke="none" visibility="hidden"></rect></g></svg></g></svg>